<svg width="70" height="73" viewBox="0 0 70 73" fill="none" xmlns="http://www.w3.org/2000/svg">
<circle cx="35" cy="35" r="35" fill="#92A234"/>
<g clip-path="url(#clip0_5391_31801)">
<mask id="mask0_5391_31801" style="mask-type:alpha" maskUnits="userSpaceOnUse" x="19" y="55" width="33" height="26">
<path fill-rule="evenodd" clip-rule="evenodd" d="M46.9315 60.2364C45.7201 57.6669 43.1064 55.8887 40.0774 55.8887C38.8873 55.8887 37.7613 56.1632 36.7593 56.6523C36.1944 56.1758 35.4647 55.8887 34.6678 55.8887C33.2497 55.8887 32.0439 56.7982 31.6021 58.0657C30.4976 58.1466 29.4954 58.596 28.718 59.2915C28.375 59.1893 28.0116 59.1344 27.6354 59.1344C26.1051 59.1344 24.7868 60.0422 24.1896 61.3486C21.5525 61.7098 19.5209 63.9716 19.5209 66.7079C19.5209 69.6955 21.9428 72.1175 24.9305 72.1175C25.3177 72.1175 25.6954 72.0768 26.0595 71.9995C26.5435 76.9248 30.6972 80.7729 35.7497 80.7729C40.4014 80.7729 44.2913 77.5111 45.2569 73.1499C45.5093 73.1826 45.7668 73.1994 46.0281 73.1994C49.3145 73.1994 51.9787 70.5353 51.9787 67.2488C51.9787 65.3419 51.0817 63.6444 49.6866 62.5554C49.3267 61.3161 48.2479 60.3826 46.9315 60.2364Z" fill="white"/>
</mask>
<g mask="url(#mask0_5391_31801)">
<circle cx="35" cy="35" r="35" fill="#FFFFF1"/>
</g>
</g>
<path d="M39.4892 36.2486C38.6984 37.0032 37.8645 38.0248 37.1066 39.3949C36.3577 36.6989 35.4138 34.7224 34.4596 33.2754C38.8379 18.6887 17.5 18.166 17.5 18.166C17.5 18.166 18.1229 36.3968 29.2667 35.9782C29.244 34.7575 29.0545 33.5232 28.789 32.3658C28.6154 31.6111 28.4089 30.8916 28.1956 30.2275C27.4831 28.0247 26.6787 26.4612 26.6787 26.4612C27.491 27.5495 28.2104 28.5881 28.8457 29.5645C31.0321 32.919 32.2256 35.5279 32.7804 36.9059C34.1499 39.8396 35.3797 44.6648 35.3797 52.5504C35.3797 53.4431 36.107 54.166 36.9988 54.166C37.8928 54.166 38.6189 53.4431 38.6189 52.5504C38.6189 49.9947 38.4953 47.7206 38.2718 45.6921C38.788 43.2167 39.5674 41.4597 40.3741 40.2152C40.904 39.2071 41.8808 37.4807 43.1969 35.718C44.369 34.1499 45.8144 32.5524 47.4493 31.412C47.4493 31.412 44.0967 35.1127 43.88 38.7353C53.1403 39.2173 53.5 24.6895 53.5 24.6895C53.5 24.6895 36.5529 25.2665 39.4892 36.2486Z" fill="#FFFFF1"/>
<defs>
<clipPath id="clip0_5391_31801">
<rect width="35.8333" height="16.6667" fill="white" transform="translate(17.5 55.834)"/>
</clipPath>
</defs>
</svg>
